<?xml version="1.0" encoding="UTF-8"?>
<svg width="114px" height="35px" viewBox="0 0 114 35" version="1.1" xmlns="http://www.w3.org/2000/svg" xmlns:xlink="http://www.w3.org/1999/xlink">
    <!-- Generator: Sketch 43.2 (39069) - http://www.bohemiancoding.com/sketch -->
    <title>Group</title>
    <desc>Created with Sketch.</desc>
    <defs>
        <polygon id="path-1" points="43.4483813 20.7347561 43.4483813 0.014625304 1.14680224e-05 0.014625304 1.14680224e-05 20.7347561"></polygon>
    </defs>
    <g id="Customer-LP-v2" stroke="none" stroke-width="1" fill="none" fill-rule="evenodd">
        <g id="1-copy" transform="translate(-31.000000, -14.000000)">
            <g id="Group" transform="translate(31.000000, 14.000000)">
                <path d="M53.6343322,23.2684628 L53.6343322,13.4116293 L55.7671273,13.4116293 L55.7671273,23.2684628 L53.6343322,23.2684628 Z M55.5939517,9.66784111 C55.8309301,9.90898809 55.9494175,10.2194602 55.9494175,10.5992667 C55.9494175,10.9670158 55.8309301,11.2714593 55.5939517,11.5126063 C55.3569732,11.7537533 55.0561975,11.8743249 54.6916153,11.8743249 C54.3331095,11.8743249 54.0353718,11.7552604 53.7983934,11.5171278 C53.561415,11.2789951 53.4429275,10.9730445 53.4429275,10.5992667 C53.4429275,10.2194602 53.561415,9.90898809 53.7983934,9.66784111 C54.0353718,9.42669413 54.3331095,9.30612245 54.6916153,9.30612245 C55.0561975,9.30612245 55.3569732,9.42669413 55.5939517,9.66784111 L55.5939517,9.66784111 Z M70.2768733,23.2684628 L70.2586443,13.5834456 L66.1297717,21.9120178 L64.6896793,21.9120178 L60.5699212,13.5834456 L60.5699212,23.2684628 L58.4918132,23.2684628 L58.4918132,10.3008488 L61.1076773,10.3008488 L65.41884,18.9187959 L69.7117738,10.3008488 L72.3094088,10.3008488 L72.3094088,23.2684628 L70.2768733,23.2684628 Z M82.0066941,13.9722932 C82.7905458,14.3943004 83.3996927,14.9805802 83.8341531,15.7311502 C84.2686136,16.4817201 84.4858405,17.3513434 84.4858405,18.340046 C84.4858405,19.3166913 84.2686136,20.1848074 83.8341531,20.9444204 C83.3996927,21.7040334 82.7905458,22.2933275 82.0066941,22.7123203 C81.2228424,23.1313132 80.3265913,23.3408065 79.3179139,23.3408065 C78.2970838,23.3408065 77.3947564,23.1313132 76.6109048,22.7123203 C75.8270531,22.2933275 75.2179061,21.7040334 74.7834457,20.9444204 C74.3489853,20.1848074 74.1317583,19.3166913 74.1317583,18.340046 C74.1317583,17.3513434 74.3489853,16.4817201 74.7834457,15.7311502 C75.2179061,14.9805802 75.8270531,14.3943004 76.6109048,13.9722932 C77.3947564,13.550286 78.2970838,13.3392855 79.3179139,13.3392855 C80.3265913,13.3392855 81.2228424,13.550286 82.0066941,13.9722932 L82.0066941,13.9722932 Z M77.1258745,16.0657399 C76.5577339,16.6595644 76.2736679,17.4236874 76.2736679,18.358132 C76.2736679,19.3106625 76.5577339,20.0838284 77.1258745,20.6776529 C77.6940151,21.2714773 78.4246876,21.5683851 79.3179139,21.5683851 C80.2111403,21.5683851 80.9387746,21.2714773 81.5008388,20.6776529 C82.062903,20.0838284 82.3439309,19.3106625 82.3439309,18.358132 C82.3439309,17.4176587 82.0598649,16.6520286 81.4917243,16.0612185 C80.9235837,15.4704084 80.1989875,15.1750077 79.3179139,15.1750077 C78.4246876,15.1750077 77.6940151,15.4719155 77.1258745,16.0657399 L77.1258745,16.0657399 Z M89.088223,23.2684628 L85.2419002,13.4116293 L87.4840694,13.4116293 L90.2457656,21.1795375 L92.9710038,13.4116293 L95.1129134,13.4116293 L91.3121631,23.2684628 L89.088223,23.2684628 Z M104.299894,14.6550372 C105.077669,15.5322093 105.466551,16.7665619 105.466551,18.358132 C105.466551,18.5209062 105.454398,18.7861639 105.430093,19.153913 L97.9197376,19.153913 C98.0959523,19.9195547 98.4574909,20.5224131 99.0043641,20.9625063 C99.5512374,21.4025996 100.21659,21.6226429 101.000442,21.6226429 C101.535162,21.6226429 102.04557,21.5231712 102.531679,21.324225 C103.017789,21.1252787 103.44009,20.8419353 103.798596,20.4741861 L104.937909,21.6769007 C104.439647,22.207424 103.842653,22.6173677 103.146908,22.9067441 C102.451164,23.1961205 101.680996,23.3408065 100.83638,23.3408065 C99.8277031,23.3408065 98.9405664,23.1313132 98.1749438,22.7123203 C97.4093212,22.2933275 96.815365,21.7070477 96.3930573,20.9534633 C95.9707496,20.199879 95.7595989,19.3347772 95.7595989,18.358132 C95.7595989,17.3814867 95.9707496,16.5148777 96.3930573,15.7582791 C96.815365,15.0016804 97.4093212,14.409372 98.1749438,13.9813361 C98.9405664,13.5533003 99.8094742,13.3392855 100.781693,13.3392855 C102.349397,13.3392855 103.522119,13.777865 104.299894,14.6550372 L104.299894,14.6550372 Z M102.759542,15.7311502 C102.26128,15.2759852 101.60808,15.0484062 100.799922,15.0484062 C100.016071,15.0484062 99.3659089,15.2759852 98.8494175,15.7311502 C98.332926,16.1863151 98.0108833,16.8087664 97.8832795,17.5985228 L103.561619,17.5985228 C103.52516,16.8087664 103.257804,16.1863151 102.759542,15.7311502 L102.759542,15.7311502 Z M111.493983,13.8592561 C112.077315,13.5126073 112.760896,13.3392855 113.544748,13.3392855 L113.544748,15.382996 C112.560376,15.3347666 111.764383,15.5623456 111.156746,16.0657399 C110.549109,16.5691343 110.202762,17.2548857 110.117692,18.1230148 L110.117692,23.2684628 L107.966668,23.2684628 L107.966668,13.4116293 L110.117692,13.4116293 L110.117692,15.382996 C110.451893,14.7138131 110.910652,14.2059049 111.493983,13.8592561 L111.493983,13.8592561 Z" id="iMover" fill="#FFFFFF"></path>
                <g id="mark">
                    <path d="M19.4568766,17.3654984 C19.5310173,17.4412532 19.5969011,17.5214471 19.6554454,17.6048534 C19.8278671,17.7866184 20.0093486,17.9592133 20.2006352,18.1219957 C20.5899745,18.4109389 20.8667553,18.7255816 21.030404,19.1769568 C21.0430188,19.1462927 21.0562643,19.1160375 21.0704274,19.0864831 C21.0063784,18.7671095 20.9477768,18.4465677 20.8974322,18.1248577 C20.8873404,18.1192506 20.8770765,18.1142275 20.867042,18.1083867 C20.3930113,17.8338702 19.9110103,17.5748318 19.4224725,17.3294024 C19.4340552,17.341376 19.4452365,17.3535832 19.4568766,17.3654984" id="Fill-1" fill="#61AF7D"></path>
                    <g id="Group-5" transform="translate(0.000000, 14.235082)">
                        <mask id="mask-2" fill="white">
                            <use xlink:href="#path-1"></use>
                        </mask>
                        <g id="Clip-4"></g>
                        <path d="M32.8011939,2.01701866 L32.8247606,4.75318875 C32.8247606,5.7217647 31.9545671,6.46412737 31.0710706,6.63905862 C30.9772622,6.7261446 30.876573,6.79956316 30.7715259,6.85195492 C29.8779375,7.29801501 28.9114126,7.62982951 27.9094515,7.37657345 C27.4049158,7.2490109 26.9370778,6.96065177 26.5788168,6.57159765 C26.2795587,6.56371261 25.974624,6.4839276 25.6833362,6.32628505 C25.4890106,6.22115107 25.3108549,6.08914953 25.1466328,5.93915839 C25.1695115,6.57825614 24.9309193,7.1549744 24.4685859,7.54408692 C24.3828625,9.79301945 24.4960519,12.2574766 22.4289408,13.5977012 C21.5376461,14.1755876 20.3825868,13.7561614 19.845654,12.9077303 C19.3045927,12.0528742 19.6551128,10.925546 20.4114862,10.3550774 C20.4246171,10.3320063 20.4376907,10.3088184 20.4501335,10.2853385 C20.522382,10.0600013 20.5741601,9.82905704 20.6135528,9.59519235 C20.7086227,8.64244491 20.6766843,7.67573802 20.7371781,6.7194277 C20.4919918,7.04014473 20.1045446,7.29451054 19.7417537,7.39625687 C19.3148566,7.51599278 18.6608926,7.47861181 18.286863,7.2024015 C17.734047,6.79413123 17.2546263,6.36401646 16.8162038,5.87893999 C16.516487,5.57422668 16.2508303,5.27523734 16.0613786,4.93547938 C16.0315044,4.88186106 16.0047265,4.82760024 15.980357,4.77287217 C15.9851735,4.82748343 15.9879259,4.88238673 15.9875818,4.93740684 C15.9856323,5.2373307 15.969405,5.53702094 15.9801276,5.83624391 C16.5351799,6.11116925 17.0423532,6.46149902 17.4414977,6.90668299 C17.8002175,7.30677617 17.9794627,7.79173584 17.9775705,8.27628664 C18.1248772,8.84529507 18.0112291,9.476683 17.6464313,9.95767093 C17.0754385,10.7104886 16.0026623,11.4621965 16.0489931,10.5001622 C16.1828249,7.7215297 13.0168479,9.14539416 13.0168479,9.14539416 C13.0806674,8.86001383 12.0314007,6.33148334 12.231059,6.11140289 C12.2035357,5.72234877 12.208811,5.32716184 12.211334,4.93740684 C12.2182721,3.85908271 13.0708623,3.06105743 14.0994292,3.01409759 C14.8466283,2.97998746 15.5199732,3.49327488 15.8209515,4.16776774 C15.7521433,3.44356988 16.0997964,2.72363578 16.7387373,2.30403441 C16.8864454,2.20701912 17.0615048,2.13821477 17.24614,2.09604437 C16.9033034,1.92041222 16.6290457,1.69688571 16.4054192,1.34357715 C16.214362,1.04178423 13.522645,0.369744506 13.5387576,0.014625304 L-0.373602908,7.72421658 L21.7242029,20.4011869 L43.8220071,7.72421658 L32.8011939,2.01701866 Z" id="Fill-3" fill="#93CEC8" mask="url(#mask-2)"></path>
                    </g>
                    <polygon id="Fill-26" fill="#5BABA3" points="21.1017591 28.1156821 27.2235283 31.497013 37.7466759 25.4566638 32.7337969 22.6683613"></polygon>
                    <path d="M22.0453125,27.9699827 L22.0172158,17.7395709 L28.1103483,20.9266489 C28.1756587,20.9608175 28.2472191,20.9779893 28.3187223,20.9779893 C28.3846634,20.9779893 28.4507765,20.9634458 28.5120731,20.9341835 L32.8004255,18.8904959 L32.7327068,22.6689525" id="Fill-6" fill="#FFFFFF"></path>
                    <polygon id="Fill-8" fill="#FFFFFF" points="21.3953451 12.6894663 17.8752929 14.8320383 11.5678804 11.4743512 21.5787761 6.04762745"></polygon>
                    <polygon id="Fill-10" fill="#FFFFFF" points="18.7927118 15.2638469 21.8274373 13.5079343 24.7285603 15.0712181 21.5787532 16.6142344"></polygon>
                    <polygon id="Fill-12" fill="#FFFFFF" points="22.2296093 12.8023685 25.6767249 14.6598522 32.3997959 11.3926971 22.418717 5.95750427"></polygon>
                    <polygon id="Fill-14" fill="#FFFFFF" points="15.361898 0 4.84818685 5.29075044 10.5644227 10.870853 20.9535911 5.23362765"></polygon>
                    <path d="M18.9396515,20.7403457 L17.4480632,19.9619454 C17.3364793,19.9037129 17.2669258,19.7860796 17.268646,19.6583419 L17.291238,17.9768992 C17.294621,17.7268555 17.5554039,17.5680448 17.773239,17.6834586 L19.2196433,18.44971 C19.3273854,18.5067744 19.3955628,18.6195598 19.3972256,18.743209 L19.4198177,20.4368005 C19.4232007,20.6899398 19.1608697,20.8558178 18.9396515,20.7403457 L18.9396515,20.7403457 Z M21.0649055,17.4063721 L10.6479845,11.9433772 L10.6479845,22.1494037 L12.989296,23.4944761 L13.0155004,19.2142092 C13.017622,18.9283616 13.1851698,18.6434486 13.4918247,18.7753333 L14.9336992,19.5285598 C15.3619152,19.7682653 15.3603097,20.0885734 15.3619152,20.3133849 L15.3619152,24.8575381 L21.0940916,28.150743 L21.0649055,17.4063721 Z" id="Fill-16" fill="#FFFFFF"></path>
                    <polygon id="Fill-18" fill="#FFFFFF" points="33.1617428 11.9988003 22.5643151 17.1487881 28.1172463 17.6485249 38.9756862 12.4736554"></polygon>
                    <polygon id="Fill-24" fill="#FFFFFF" points="38.9886508 5.75557111 33.2999382 10.6187767 22.890242 5.02097667 28.5748835 0.457461286"></polygon>
                </g>
            </g>
        </g>
    </g>
</svg>