<?xml version="1.0" encoding="UTF-8"?>
<svg width="50px" height="50px" viewBox="0 0 50 50" version="1.1" xmlns="http://www.w3.org/2000/svg" xmlns:xlink="http://www.w3.org/1999/xlink">
    <!-- Generator: Sketch 43.2 (39069) - http://www.bohemiancoding.com/sketch -->
    <title>evening icon</title>
    <desc>Created with Sketch.</desc>
    <defs></defs>
    <g id="Customer-LP-v2" stroke="none" stroke-width="1" fill="none" fill-rule="evenodd">
        <g id="4-One" transform="translate(-935.000000, -415.000000)" fill="#49B1D3">
            <g id="Page-1" transform="translate(454.000000, 414.000000)">
                <g id="morning">
                    <g id="Group-7" transform="translate(481.000000, 1.000000)">
                        <g id="evening-icon">
                            <g id="Fill-1">
                                <path d="M25,0 C11.1933775,0 0,11.1933775 0,25 C0,38.8092715 11.1933775,50 25,50 C38.8092715,50 50,38.8092715 50,25 C50,11.1933775 38.8092715,0 25,0 Z M25,44.205298 C20.268543,44.205298 15.8682119,46.7586093 12.2,44.3268808 C5.94483444,40.174894 1.82119205,33.0712517 1.82119205,24.9997285 C1.82119205,12.1997285 12.2,1.82092053 25,1.82092053 C37.8,1.82092053 48.1788079,12.1997285 48.1788079,24.9997285 C48.1788079,33.0732384 44.052649,40.1825099 37.789404,44.3315166 C34.1237086,46.7606556 29.7284768,44.204755 25,44.204755 L25,44.205298 Z"></path>
                                <path d="M25.2586005,18.969362 C21.1004241,18.969362 17.716228,22.2511384 17.716228,26.2831778 C17.716228,28.2942021 18.5581231,30.1185889 19.9180053,31.4422457 C22.65625,31.0606061 28.90625,31.4474391 30.5938548,31.4474391 C31.9568732,30.123363 32.800973,28.2968335 32.800973,26.2831778 C32.800973,22.2511384 29.4166412,18.969362 25.2586005,18.969362 Z M25.2586005,31.5081778 C22.2824266,31.5081778 19.8707263,29.1695594 19.8707263,26.2835726 C19.8707263,23.3975857 22.2824266,21.0589673 25.2586005,21.0589673 C28.2347744,21.0589673 30.6464747,23.3975857 30.6464747,26.2835726 C30.6464747,29.1695594 28.2347744,31.5081778 25.2586005,31.5081778 Z M25.2586005,16.8805463 C25.8522477,16.8805463 26.3372066,16.4128226 26.3372066,15.8346252 L26.3372066,13.7452831 C26.3372066,13.1670528 25.8522206,12.699362 25.2586005,12.699362 C24.6623005,12.699362 24.1799944,13.1670857 24.1799944,13.7452831 L24.1799944,15.8346252 C24.1799944,16.4128555 24.6623345,16.8805463 25.2586005,16.8805463 Z M33.4024302,18.9915187 L34.9263056,17.5138213 C35.3476866,17.1052095 35.3476866,16.4447424 34.9263056,16.036124 C34.5049247,15.6275121 33.823818,15.6275121 33.4024302,16.036124 L31.8785548,17.5138213 C31.4571738,17.9224332 31.4571738,18.5829003 31.8785548,18.9915187 C32.2999358,19.4001305 32.9810425,19.4001305 33.4024302,18.9915187 Z M36.1874852,24.9259784 L38.2049153,24.2658559 C38.7627736,24.0833192 39.0523033,23.4896953 38.8526952,22.9377103 C38.6530841,22.3857311 38.0409095,22.0871536 37.483045,22.2696873 L35.465615,22.9298098 C34.9077566,23.1123465 34.6182269,23.7059704 34.8178351,24.2579554 C35.0174461,24.8099346 35.6296208,25.1085121 36.1874852,24.9259784 Z M14.3297157,24.9259784 L12.3122857,24.2658559 C11.7544274,24.0833192 11.4648976,23.4896953 11.6645058,22.9377103 C11.8641169,22.3857311 12.4762915,22.0871536 13.034156,22.2696873 L15.051586,22.9298098 C15.6094443,23.1123465 15.8989741,23.7059704 15.6993659,24.2579554 C15.4997548,24.8099346 14.8875802,25.1085121 14.3297157,24.9259784 Z M16.876709,19.6336384 C17.29809,20.0422502 17.9791967,20.0422502 18.4005845,19.6336384 C18.8219722,19.2250265 18.8219654,18.5645594 18.4005845,18.155941 L16.876709,16.6782436 C16.4553281,16.2696318 15.7742214,16.2696318 15.3528336,16.6782436 C14.9314527,17.0868555 14.9314527,17.7473226 15.3528336,18.155941 L16.876709,19.6336384 Z" id="Fill-2"></path>
                                <path d="M39.3750191,30.4119498 C39.3750191,29.8337195 38.888005,29.3660287 38.2859609,29.3660287 L12.4458289,29.3660287 C11.8437506,29.3660287 11.3567707,29.8337524 11.3567707,30.4119498 C11.3567707,30.9876077 11.8437848,31.4578708 12.4458289,31.4578708 L38.2859609,31.4578708 C38.8880392,31.4578708 39.3750191,30.9875813 39.3750191,30.4119498 Z" id="Path-Copy"></path>
                            </g>
                        </g>
                    </g>
                </g>
            </g>
        </g>
    </g>
</svg>