<?xml version="1.0" encoding="UTF-8"?>
<svg width="30px" height="18px" viewBox="0 0 30 18" version="1.1" xmlns="http://www.w3.org/2000/svg" xmlns:xlink="http://www.w3.org/1999/xlink">
    <!-- Generator: Sketch 43.2 (39069) - http://www.bohemiancoding.com/sketch -->
    <title>Shape</title>
    <desc>Created with Sketch.</desc>
    <defs></defs>
    <g id="Customer-LP-v2" stroke="none" stroke-width="1" fill="none" fill-rule="evenodd">
        <g id="2" transform="translate(-38.000000, -95.000000)" fill-rule="nonzero" fill="#49B1D3">
            <path d="M46.7931157,112.783643 C47.0837123,112.493046 47.0743389,112.033718 46.7931157,111.724389 L40.5686168,104.750204 L67.2472348,104.750204 C67.6596961,104.750204 67.99716,104.412741 67.99716,104.000279 C67.99716,103.587818 67.6596961,103.250354 67.2472348,103.250354 L40.5686168,103.250354 L46.7835167,96.27617 C47.0553664,95.957453 47.0834868,95.5168858 46.7928906,95.2262747 C46.502294,94.9356781 45.9960741,94.9169312 45.7242293,95.2169008 C45.7242293,95.2169008 38.2998501,103.372247 38.2249776,103.466318 C38.149985,103.560057 38,103.728794 38,104.000648 C38,104.272503 38.149985,104.459977 38.2249776,104.534979 C38.2999701,104.609981 45.7242293,112.784396 45.7242293,112.784396 C45.8648408,112.925007 46.0616932,113 46.25856,113 C46.4554171,113 46.642896,112.925007 46.7928906,112.784396 L46.7931157,112.783643 Z" id="Shape"></path>
        </g>
    </g>
</svg>