<?xml version="1.0" encoding="UTF-8"?>
<svg width="35px" height="35px" viewBox="0 0 35 35" version="1.1" xmlns="http://www.w3.org/2000/svg" xmlns:xlink="http://www.w3.org/1999/xlink">
    <!-- Generator: Sketch 43.2 (39069) - http://www.bohemiancoding.com/sketch -->
    <title>Group 3</title>
    <desc>Created with Sketch.</desc>
    <defs></defs>
    <g id="Customer-LP-v2" stroke="none" stroke-width="1" fill="none" fill-rule="evenodd">
        <g id="1-copy" transform="translate(-607.000000, -87.000000)">
            <g id="Group-8" transform="translate(607.000000, 87.000000)">
                <g id="Group-3">
                    <ellipse id="Oval" fill="#002F54" cx="17.3518663" cy="17.5" rx="17.3518663" ry="17.5"></ellipse>
                    <g id="Group-2" transform="translate(9.254329, 11.083333)" fill="#41C940">
                        <path d="M1.57326506,3.16129323 C5.05692342,4.80438998 12.0152501,5.26736199 16.0473036,3.23391629 L16.5642336,0.578635637 C11.3230134,2.22627133 6.16719904,2.24442709 2.09019501,0.506012576 L1.57326506,3.16129323 L1.57326506,3.16129323 L1.57326506,3.16129323 Z" id="path2444"></path>
                        <path d="M0.79562262,7.08293851 C4.27928098,8.72603527 11.2376076,9.18900727 15.2696612,7.15556158 L15.7865912,4.50028091 C10.545371,6.1479166 5.38955661,6.16607238 1.31255257,4.42765785 L0.79562262,7.08293851 L0.79562262,7.08293851 L0.79562262,7.08293851 Z" id="path2451"></path>
                        <path d="M0.0179801722,11.0045838 C3.50163853,12.6476806 10.4599652,13.1106526 14.4920187,11.0772068 L15.0089487,8.42192622 C9.76772853,10.0695619 4.61191416,10.0877176 0.534910122,8.34930314 L0.0179801722,11.0045838 L0.0179801722,11.0045838 L0.0179801722,11.0045838 Z" id="path2455"></path>
                    </g>
                </g>
            </g>
        </g>
    </g>
</svg>