<?xml version="1.0" encoding="UTF-8"?>
<svg width="26px" height="26px" viewBox="0 0 26 26" version="1.1" xmlns="http://www.w3.org/2000/svg" xmlns:xlink="http://www.w3.org/1999/xlink">
    <!-- Generator: Sketch 43.2 (39069) - http://www.bohemiancoding.com/sketch -->
    <title>Shape</title>
    <desc>Created with Sketch.</desc>
    <defs></defs>
    <g id="Customer-LP-v2" stroke="none" stroke-width="1" fill="none" fill-rule="evenodd">
        <g id="1-copy-2" transform="translate(-565.000000, -198.000000)" fill-rule="nonzero" fill="#4ACE74">
            <g id="np_checkbox_801251_1F1F1F" transform="translate(565.000000, 198.000000)">
                <path d="M13.0586207,0.501590024 L13.0390885,0.500504975 C13.026067,0.500504975 13.0130456,0.499419926 12.9989394,0.499419926 C9.06765025,0.499419926 5.31636924,2.38536646 2.96487384,5.54520402 C1.35238414,7.71327444 0.499484401,10.2915301 0.499484401,12.9999861 C0.499484401,15.3872609 1.17551502,17.7071438 2.45268398,19.7114012 C3.6962403,21.6613506 5.44976417,23.227116 7.52569153,24.2396619 C9.24018585,25.0762831 11.0816859,25.5005801 12.998995,25.5005801 C13.0120164,25.5005801 13.0250378,25.499495 13.0369745,25.499495 L13.0565068,25.49841 C19.9176508,25.4669419 25.4995703,19.860099 25.4995703,13.0000661 C25.5006554,6.14003318 19.918762,0.532001401 13.0587291,0.501722252 L13.0586207,0.501590024 Z M20.4559002,10.3478693 L12.6138784,18.1910023 C12.528155,18.2767257 12.4326646,18.3559404 12.3295877,18.4232184 C12.0366022,18.6163688 11.6958923,18.7183707 11.3442931,18.7183707 C10.8635769,18.7183707 10.4121675,18.5306455 10.072541,18.1899301 L5.54316923,13.6616694 C4.84327642,12.9606932 4.84327642,11.8202249 5.54316923,11.1192487 C5.8828235,10.7795944 6.33423284,10.5918915 6.81492128,10.5918915 C7.29560972,10.5918915 7.74704683,10.7785333 8.08558994,11.1192487 L11.3440709,14.3788408 L17.9154796,7.80632088 C18.2551339,7.4666666 18.7065432,7.28004704 19.1861483,7.28004704 C19.6668645,7.28004704 20.1182738,7.46668883 20.4568169,7.80632088 C20.7964712,8.14597515 20.9830908,8.59738448 20.9830908,9.07698954 C20.9830908,9.55770576 20.7953656,10.0091151 20.4557336,10.3476582 L20.4559002,10.3478693 Z" id="Shape"></path>
            </g>
        </g>
    </g>
</svg>