<?xml version="1.0" encoding="UTF-8"?>
<svg width="50px" height="50px" viewBox="0 0 50 50" version="1.1" xmlns="http://www.w3.org/2000/svg" xmlns:xlink="http://www.w3.org/1999/xlink">
    <!-- Generator: Sketch 43.2 (39069) - http://www.bohemiancoding.com/sketch -->
    <title>morning</title>
    <desc>Created with Sketch.</desc>
    <defs></defs>
    <g id="Customer-LP-v2" stroke="none" stroke-width="1" fill="none" fill-rule="evenodd">
        <g id="4-One-Copy-2" transform="translate(-454.000000, -414.000000)" fill="#F57023">
            <g id="Page-1" transform="translate(454.000000, 414.000000)">
                <g id="morning">
                    <g id="Group-4">
                        <g id="morning">
                            <path d="M25,0 C11.1933775,0 0,11.1933775 0,25 C0,38.8092715 11.1933775,50 25,50 C38.8092715,50 50,38.8092715 50,25 C50,11.1933775 38.8092715,0 25,0 Z M25,44.205298 C20.268543,44.205298 15.8682119,46.7586093 12.2,44.3268808 C5.94483444,40.174894 1.82119205,33.0712517 1.82119205,24.9997285 C1.82119205,12.1997285 12.2,1.82092053 25,1.82092053 C37.8,1.82092053 48.1788079,12.1997285 48.1788079,24.9997285 C48.1788079,33.0732384 44.052649,40.1825099 37.789404,44.3315166 C34.1237086,46.7606556 29.7284768,44.204755 25,44.204755 L25,44.205298 Z" id="Fill-1"></path>
                            <path d="M24.9460814,16.8760606 C20.787905,16.8760606 17.4037089,20.1578369 17.4037089,24.1898764 C17.4037089,28.2219159 20.7880407,31.5036922 24.9460814,31.5036922 C29.1041221,31.5036922 32.4884539,28.2219159 32.4884539,24.1898764 C32.4884539,20.1578369 29.1041221,16.8760606 24.9460814,16.8760606 Z M24.9460814,29.4148764 C21.9699075,29.4148764 19.5582072,27.076258 19.5582072,24.1902711 C19.5582072,21.3042843 21.9699075,18.9656659 24.9460814,18.9656659 C27.9222553,18.9656659 30.3339556,21.3042843 30.3339556,24.1902711 C30.3339556,27.076258 27.9222553,29.4148764 24.9460814,29.4148764 Z M24.9460814,14.7872448 C25.5397286,14.7872448 26.0246875,14.3195211 26.0246875,13.7413238 L26.0246875,11.6519817 C26.0246875,11.0737514 25.5397015,10.6060606 24.9460814,10.6060606 C24.3497815,10.6060606 23.8674753,11.0737843 23.8674753,11.6519817 L23.8674753,13.7413238 C23.8674753,14.319554 24.3498154,14.7872448 24.9460814,14.7872448 Z M24.9460814,33.5938238 C24.3497815,33.5938238 23.8674753,34.0615474 23.8674753,34.6397448 L23.8674753,36.7290869 C23.8674753,37.3047448 24.3498154,37.775008 24.9460814,37.775008 C25.5397286,37.775008 26.0246875,37.3072843 26.0246875,36.7290869 L26.0246875,34.6397448 C26.0246875,34.0615146 25.5397015,33.5938238 24.9460814,33.5938238 Z M33.3263446,17.5398764 L34.85022,16.062179 C35.2716009,15.6535672 35.2716009,14.9931001 34.85022,14.5844817 C34.428839,14.1758698 33.7477323,14.1758698 33.3263446,14.5844817 L31.8024692,16.062179 C31.3810882,16.4707909 31.3810882,17.131258 31.8024692,17.5398764 C32.2238501,17.9484882 32.9049568,17.9484882 33.3263446,17.5398764 Z M16.5664967,30.8418501 L15.0426213,32.3195474 C14.6212403,32.7255935 14.6212403,33.3886264 15.0426213,33.7972448 C15.4640023,34.2058567 16.145109,34.2058567 16.5664967,33.7972448 L18.0903721,32.3195474 C18.5117531,31.9109356 18.5117531,31.2504685 18.0903721,30.8418501 C17.6689912,30.4332382 16.9878845,30.4306659 16.5664967,30.8418501 Z M15.2493462,24.1911922 C15.2493462,23.6129619 14.7670062,23.1452711 14.1707401,23.1452711 L12.0161061,23.1452711 C11.4198061,23.1452711 10.9375,23.6129948 10.9375,24.1911922 C10.9375,24.7668501 11.41984,25.2371132 12.0161061,25.2371132 L14.1707401,25.2371132 C14.7670401,25.2371132 15.2493462,24.7668238 15.2493462,24.1911922 Z M37.8771423,23.1452711 L35.7225082,23.1452711 C35.1262083,23.1452711 34.6439021,23.6129948 34.6439021,24.1911922 C34.6439021,24.7668501 35.1262422,25.2371132 35.7225082,25.2371132 L37.8771423,25.2371132 C38.4707895,25.2371132 38.9557484,24.7693896 38.9557484,24.1911922 C38.9531024,23.6129619 38.4707623,23.1452711 37.8771423,23.1452711 Z M16.56419,17.5403369 C16.9855709,17.9489488 17.6666776,17.9489488 18.0880654,17.5403369 C18.5094531,17.1317251 18.5094463,16.471258 18.0880654,16.0626396 L16.56419,14.5849422 C16.142809,14.1763303 15.4617023,14.1763303 15.0403146,14.5849422 C14.6189336,14.993554 14.6189336,15.6540211 15.0403146,16.0626396 L16.56419,17.5403369 Z M33.3294655,30.839679 C32.9080845,30.4310672 32.2269778,30.4310672 31.80559,30.839679 C31.3842091,31.2482909 31.3842091,31.908758 31.80559,32.3173764 L33.3294655,33.7950738 C33.7482005,34.2036856 34.4319531,34.2036856 34.8533409,33.7950738 C35.2747218,33.3864619 35.2747218,32.7259948 34.8533409,32.3173764 L33.3294655,30.839679 Z" id="Fill-2"></path>
                        </g>
                    </g>
                </g>
            </g>
        </g>
    </g>
</svg>